<?xml version="1.0" standalone="no"?>
<!DOCTYPE svg PUBLIC "-//W3C//DTD SVG 20010904//EN"
 "http://www.w3.org/TR/2001/REC-SVG-20010904/DTD/svg10.dtd">
<svg version="1.0" xmlns="http://www.w3.org/2000/svg"
 width="64.000000pt" height="64.000000pt" viewBox="0 0 64.000000 64.000000"
 preserveAspectRatio="xMidYMid meet">

<g transform="translate(0.000000,64.000000) scale(0.100000,-0.100000)"
fill="#000000" stroke="none">
<path d="M22 617 c-21 -23 -22 -30 -22 -298 0 -275 0 -276 23 -297 23 -21 30
-22 298 -22 275 0 276 0 297 23 21 23 22 30 22 298 0 275 0 276 -23 297 -23
21 -30 22 -298 22 -275 0 -276 0 -297 -23z m267 -157 c30 -44 55 -80 56 -80 1
0 32 36 69 80 43 51 75 80 88 80 15 0 2 -20 -60 -93 l-81 -93 85 -122 c46 -67
84 -124 84 -127 0 -3 -28 -5 -62 -5 l-63 1 -58 84 -58 85 -71 -83 c-39 -45
-80 -84 -91 -85 -25 -5 -25 -5 63 98 31 36 61 72 68 81 11 15 1 34 -68 133
-44 64 -80 118 -80 121 0 3 28 5 63 5 l62 0 54 -80z"/>
<path d="M160 508 c0 -2 60 -88 133 -193 111 -157 138 -191 160 -193 15 -2 27
0 27 3 0 4 -59 92 -132 196 -118 169 -135 189 -160 189 -15 0 -28 -1 -28 -2z"/>
</g>
</svg>
